<svg xmlns="http://www.w3.org/2000/svg" viewBox="0 0 175 105">
  <!-- Tower (cell_tower) — Material Symbols, viewBox 0 -960 960 960 -->
  <g transform="translate(0, 100) scale(0.104)" fill="currentColor">
    <path d="M196-276q-57-60-86.5-133T80-560q0-78 29.5-151T196-844l48 48q-48 48-72 110.5T148-560q0 63 24 125.5T244-324l-48 48Zm96-96q-39-39-59.5-88T212-560q0-51 20.5-100t59.5-88l48 48q-30 27-45 64t-15 76q0 36 15 73t45 67l-48 48ZM280-80l135-405q-16-14-25.5-33t-9.5-42q0-42 29-71t71-29q42 0 71 29t29 71q0 23-9.5 42T545-485L680-80h-80l-26-80H387l-27 80h-80Zm133-160h134l-67-200-67 200Zm255-132-48-48q30-27 45-64t15-76q0-36-15-73t-45-67l48-48q39 39 58 88t22 100q0 51-20.5 100T668-372Zm96 96-48-48q48-48 72-110.5T812-560q0-63-24-125.5T716-796l48-48q57 60 86.5 133T880-560q0 78-28 151t-88 133Z"/>
  </g>
  <!-- Engineer with hard hat — Material Symbols engineering, viewBox 0 -960 960 960 -->
  <g transform="translate(102, 102) scale(0.073)" fill="currentColor">
    <path d="M42-120v-92q0-34 16-56.5t45-36.5q54-26 115.5-43T358-365q78 0 139.5 17T613-305q29 14 45 36.5t16 56.5v92H42Zm60-60h512v-32q0-15-8.5-24.5T585-251q-43-19-96-36.5T358-305q-78 0-131 17.5T131-251q-12 5-20.5 14.5T102-212v32Zm148-288q-42-43-42-107h-10q-8 0-14-6t-6-14q0-8 6-14t14-6h10q0-40 20-72t52-52v39q0 6 4.5 10.5T295-685q7 0 11-4.5t4-10.5v-52q8-2 22-3.5t27-1.5q13 0 27 1.5t22 3.5v52q0 6 4 10.5t11 4.5q6 0 10.5-4.5T438-700v-39q32 20 51 52t19 72h10q8 0 14 6t6 14q0 8-6 14t-14 6h-10q0 64-42 107t-108 43q-66 0-108-43Zm174-42q24-25 24-65H268q0 40 24 65t66 25q42 0 66-25Zm236 149-2-29q-7-4-14.5-9T630-409l-26 14-22-32 26-19q-2-4-2-7.5v-15q0-3.5 2-7.5l-26-19 22-32 26 14 14-10q7-5 14-9l2-29h40l2 29q7 4 14 9l14 10 26-14 22 32-26 19q2 4 2 7.5v15q0 3.5-2 7.5l26 19-22 32-26-14q-6 5-13.5 10t-14.5 9l-2 29h-40Zm47-73q11-11 11-27t-11-27q-11-11-27-11t-27 11q-11 11-11 27t11 27q11 11 27 11t27-11Zm61-144-9-35q-10-4-20.5-11T721-639l-44 16-20-35 35-28q-2-5-3.5-11t-1.5-12q0-6 1.5-12t3.5-11l-35-28 20-35 44 16q7-8 17.5-15.5T759-805l9-35h38l9 35q10 3 20.5 10.5T853-779l44-16 20 35-35 28q2 5 3.5 11t1.5 12q0 6-1.5 12t-3.5 11l35 28-20 35-44-16q-7 8-17.5 15T815-613l-9 35h-38Zm60.5-89.5Q845-684 845-709t-16.5-41.5Q812-767 787-767t-41.5 16.5Q729-734 729-709t16.5 41.5Q762-651 787-651t41.5-16.5ZM358-180Z"/>
  </g>
</svg>
